<mxfile host="app.diagrams.net" modified="2021-05-18T06:31:12.229Z" agent="5.0 (Macintosh; Intel Mac OS X 10_15_7) AppleWebKit/537.36 (KHTML, like Gecko) Chrome/90.0.4430.212 Safari/537.36" etag="KQ1HGigJp3HHkV8C-rXn" version="14.6.13" type="github">
  <diagram id="OTo5Feen4saOyW0Ed6n6" name="Page-1">
    <mxGraphModel dx="1296" dy="703" grid="1" gridSize="10" guides="1" tooltips="1" connect="1" arrows="1" fold="1" page="1" pageScale="1" pageWidth="1169" pageHeight="827" math="0" shadow="0">
      <root>
        <mxCell id="0" />
        <mxCell id="1" parent="0" />
        <mxCell id="w-2gReXeAoHglQXPs9pq-6" style="edgeStyle=orthogonalEdgeStyle;rounded=0;orthogonalLoop=1;jettySize=auto;html=1;exitX=0.5;exitY=1;exitDx=0;exitDy=0;entryX=0.458;entryY=0.167;entryDx=0;entryDy=0;entryPerimeter=0;" edge="1" parent="1" source="w-2gReXeAoHglQXPs9pq-1" target="w-2gReXeAoHglQXPs9pq-3">
          <mxGeometry relative="1" as="geometry" />
        </mxCell>
        <mxCell id="w-2gReXeAoHglQXPs9pq-7" style="edgeStyle=orthogonalEdgeStyle;rounded=0;orthogonalLoop=1;jettySize=auto;html=1;exitX=0.85;exitY=0.95;exitDx=0;exitDy=0;exitPerimeter=0;" edge="1" parent="1" source="w-2gReXeAoHglQXPs9pq-1" target="w-2gReXeAoHglQXPs9pq-4">
          <mxGeometry relative="1" as="geometry" />
        </mxCell>
        <mxCell id="w-2gReXeAoHglQXPs9pq-8" style="edgeStyle=orthogonalEdgeStyle;rounded=0;orthogonalLoop=1;jettySize=auto;html=1;exitX=0.15;exitY=0.95;exitDx=0;exitDy=0;exitPerimeter=0;entryX=0.473;entryY=-0.035;entryDx=0;entryDy=0;entryPerimeter=0;" edge="1" parent="1" source="w-2gReXeAoHglQXPs9pq-1" target="w-2gReXeAoHglQXPs9pq-2">
          <mxGeometry relative="1" as="geometry" />
        </mxCell>
        <mxCell id="w-2gReXeAoHglQXPs9pq-1" value="Kafka source of all truth" style="shape=datastore;whiteSpace=wrap;html=1;" vertex="1" parent="1">
          <mxGeometry x="482" y="30" width="205" height="180" as="geometry" />
        </mxCell>
        <mxCell id="w-2gReXeAoHglQXPs9pq-2" value="Bar Topic" style="verticalLabelPosition=bottom;verticalAlign=top;html=1;shape=mxgraph.basic.rect;fillColor2=none;strokeWidth=1;size=20;indent=5;" vertex="1" parent="1">
          <mxGeometry x="330" y="230" width="120" height="60" as="geometry" />
        </mxCell>
        <mxCell id="w-2gReXeAoHglQXPs9pq-3" value="Kitchen Topic" style="verticalLabelPosition=bottom;verticalAlign=top;html=1;shape=mxgraph.basic.rect;fillColor2=none;strokeWidth=1;size=20;indent=5;" vertex="1" parent="1">
          <mxGeometry x="530" y="230" width="120" height="60" as="geometry" />
        </mxCell>
        <mxCell id="w-2gReXeAoHglQXPs9pq-4" value="Waiters Topic" style="verticalLabelPosition=bottom;verticalAlign=top;html=1;shape=mxgraph.basic.rect;fillColor2=none;strokeWidth=1;size=20;indent=5;" vertex="1" parent="1">
          <mxGeometry x="760" y="230" width="120" height="60" as="geometry" />
        </mxCell>
        <mxCell id="w-2gReXeAoHglQXPs9pq-9" value="The kitchen should be able to get messages from bar and waiters and can message back both" style="whiteSpace=wrap;html=1;shape=mxgraph.basic.cloud_rect" vertex="1" parent="1">
          <mxGeometry x="530" y="350" width="120" height="90" as="geometry" />
        </mxCell>
        <mxCell id="w-2gReXeAoHglQXPs9pq-10" value="The bar should get messages from the Waiters and should send messages to them" style="whiteSpace=wrap;html=1;shape=mxgraph.basic.cloud_rect" vertex="1" parent="1">
          <mxGeometry x="330" y="350" width="120" height="90" as="geometry" />
        </mxCell>
        <mxCell id="w-2gReXeAoHglQXPs9pq-11" value="Waiters should message kitchen and bar and get updates when order is ready" style="whiteSpace=wrap;html=1;shape=mxgraph.basic.cloud_rect" vertex="1" parent="1">
          <mxGeometry x="760" y="350" width="120" height="90" as="geometry" />
        </mxCell>
        <mxCell id="w-2gReXeAoHglQXPs9pq-12" value="&lt;b&gt;&lt;u&gt;&lt;font style=&quot;font-size: 18px&quot;&gt;The flow of a normal order end to end&lt;/font&gt;&lt;/u&gt;&lt;/b&gt;" style="text;html=1;strokeColor=none;fillColor=none;align=center;verticalAlign=middle;whiteSpace=wrap;rounded=0;" vertex="1" parent="1">
          <mxGeometry x="330" y="470" width="550" height="20" as="geometry" />
        </mxCell>
        <mxCell id="w-2gReXeAoHglQXPs9pq-13" value="&lt;br&gt;&lt;br&gt;&lt;br&gt;Waiter" style="shape=actor;whiteSpace=wrap;html=1;" vertex="1" parent="1">
          <mxGeometry x="190" y="600" width="40" height="70" as="geometry" />
        </mxCell>
        <mxCell id="w-2gReXeAoHglQXPs9pq-14" value="&lt;br&gt;&lt;br&gt;Cook" style="shape=actor;whiteSpace=wrap;html=1;" vertex="1" parent="1">
          <mxGeometry x="545" y="595" width="40" height="70" as="geometry" />
        </mxCell>
        <mxCell id="w-2gReXeAoHglQXPs9pq-15" value="&lt;br&gt;&lt;br&gt;&lt;br&gt;Client" style="shape=actor;whiteSpace=wrap;html=1;" vertex="1" parent="1">
          <mxGeometry x="50" y="600" width="40" height="70" as="geometry" />
        </mxCell>
        <mxCell id="w-2gReXeAoHglQXPs9pq-16" value="" style="shape=datastore;whiteSpace=wrap;html=1;" vertex="1" parent="1">
          <mxGeometry x="720" y="605" width="60" height="60" as="geometry" />
        </mxCell>
        <mxCell id="w-2gReXeAoHglQXPs9pq-32" style="edgeStyle=orthogonalEdgeStyle;rounded=0;orthogonalLoop=1;jettySize=auto;html=1;" edge="1" parent="1" source="w-2gReXeAoHglQXPs9pq-17">
          <mxGeometry relative="1" as="geometry">
            <mxPoint x="790" y="635" as="targetPoint" />
          </mxGeometry>
        </mxCell>
        <mxCell id="w-2gReXeAoHglQXPs9pq-17" value="&lt;br&gt;&lt;br&gt;&lt;br&gt;Manager" style="shape=actor;whiteSpace=wrap;html=1;" vertex="1" parent="1">
          <mxGeometry x="920" y="600" width="40" height="70" as="geometry" />
        </mxCell>
        <mxCell id="w-2gReXeAoHglQXPs9pq-18" value="order place" style="shape=singleArrow;whiteSpace=wrap;html=1;" vertex="1" parent="1">
          <mxGeometry x="90" y="610" width="100" height="40" as="geometry" />
        </mxCell>
        <mxCell id="w-2gReXeAoHglQXPs9pq-19" value="" style="shape=singleArrow;whiteSpace=wrap;html=1;" vertex="1" parent="1">
          <mxGeometry x="230" y="600" width="90" height="60" as="geometry" />
        </mxCell>
        <mxCell id="w-2gReXeAoHglQXPs9pq-20" value="front office message formation and sending" style="text;html=1;strokeColor=none;fillColor=none;align=center;verticalAlign=middle;whiteSpace=wrap;rounded=0;" vertex="1" parent="1">
          <mxGeometry x="240" y="560" width="40" height="20" as="geometry" />
        </mxCell>
        <mxCell id="w-2gReXeAoHglQXPs9pq-22" value="Kafka" style="ellipse;shape=cloud;whiteSpace=wrap;html=1;" vertex="1" parent="1">
          <mxGeometry x="310" y="585" width="50" height="80" as="geometry" />
        </mxCell>
        <mxCell id="w-2gReXeAoHglQXPs9pq-23" value="" style="shape=singleArrow;whiteSpace=wrap;html=1;" vertex="1" parent="1">
          <mxGeometry x="360" y="600" width="100" height="60" as="geometry" />
        </mxCell>
        <mxCell id="w-2gReXeAoHglQXPs9pq-24" value="" style="shape=switch;whiteSpace=wrap;html=1;" vertex="1" parent="1">
          <mxGeometry x="450" y="580" width="100" height="100" as="geometry" />
        </mxCell>
        <mxCell id="w-2gReXeAoHglQXPs9pq-25" value="Feed real time, updated from kitchen when something is in progress or done" style="text;html=1;strokeColor=none;fillColor=none;align=center;verticalAlign=middle;whiteSpace=wrap;rounded=0;" vertex="1" parent="1">
          <mxGeometry x="460" y="540" width="80" height="20" as="geometry" />
        </mxCell>
        <mxCell id="w-2gReXeAoHglQXPs9pq-26" value="Order is done, message is updated to status done" style="verticalLabelPosition=bottom;verticalAlign=top;html=1;shape=mxgraph.basic.heart" vertex="1" parent="1">
          <mxGeometry x="450" y="665" width="100" height="100" as="geometry" />
        </mxCell>
        <mxCell id="w-2gReXeAoHglQXPs9pq-29" style="edgeStyle=orthogonalEdgeStyle;rounded=0;orthogonalLoop=1;jettySize=auto;html=1;" edge="1" parent="1" source="w-2gReXeAoHglQXPs9pq-28">
          <mxGeometry relative="1" as="geometry">
            <mxPoint x="70" y="680" as="targetPoint" />
          </mxGeometry>
        </mxCell>
        <mxCell id="w-2gReXeAoHglQXPs9pq-28" value="waiter picks up the food and gives to client" style="shape=singleArrow;direction=west;whiteSpace=wrap;html=1;" vertex="1" parent="1">
          <mxGeometry x="90" y="685" width="360" height="60" as="geometry" />
        </mxCell>
        <mxCell id="w-2gReXeAoHglQXPs9pq-31" style="edgeStyle=orthogonalEdgeStyle;rounded=0;orthogonalLoop=1;jettySize=auto;html=1;" edge="1" parent="1" source="w-2gReXeAoHglQXPs9pq-30">
          <mxGeometry relative="1" as="geometry">
            <mxPoint x="770" y="670" as="targetPoint" />
          </mxGeometry>
        </mxCell>
        <mxCell id="w-2gReXeAoHglQXPs9pq-30" value="Save the completed order" style="shape=singleArrow;whiteSpace=wrap;html=1;" vertex="1" parent="1">
          <mxGeometry x="555" y="680" width="195" height="60" as="geometry" />
        </mxCell>
        <mxCell id="w-2gReXeAoHglQXPs9pq-34" value="Access to reports" style="text;html=1;strokeColor=none;fillColor=none;align=center;verticalAlign=middle;whiteSpace=wrap;rounded=0;" vertex="1" parent="1">
          <mxGeometry x="810" y="610" width="100" height="20" as="geometry" />
        </mxCell>
      </root>
    </mxGraphModel>
  </diagram>
</mxfile>
